<?xml version="1.0" standalone="no"?>
<!DOCTYPE svg PUBLIC "-//W3C//DTD SVG 20010904//EN"
 "http://www.w3.org/TR/2001/REC-SVG-20010904/DTD/svg10.dtd">
<svg version="1.0" xmlns="http://www.w3.org/2000/svg"
 width="760.000000pt" height="1280.000000pt" viewBox="0 0 760.000000 1280.000000"
 preserveAspectRatio="xMidYMid meet">
<metadata>
Created by potrace 1.15, written by Peter Selinger 2001-2017
</metadata>
<g transform="translate(0.000000,1280.000000) scale(0.100000,-0.100000)"
fill="cyan" stroke="none">
<path d="M3670 12784 c-30 -8 -111 -28 -180 -44 -965 -232 -1867 -907 -2571
-1925 -174 -251 -367 -654 -499 -1041 -183 -536 -305 -1124 -369 -1779 -38
-384 -46 -546 -46 -980 0 -364 4 -467 23 -675 12 -135 27 -303 32 -375 39
-476 125 -933 265 -1415 193 -667 468 -1243 919 -1930 138 -210 295 -389 437
-501 93 -74 101 -95 74 -194 -25 -93 -94 -189 -260 -365 -224 -234 -292 -325
-339 -451 -32 -87 -39 -161 -26 -261 43 -314 238 -514 620 -636 160 -51 388
-92 755 -137 72 -9 173 -22 225 -30 335 -51 1190 -58 1660 -15 52 5 241 21
420 35 498 40 703 73 910 148 182 66 323 149 401 235 100 113 148 257 129 390
-19 137 -73 246 -259 532 -144 219 -214 355 -242 466 l-20 82 122 118 c582
568 1033 1319 1349 2249 193 568 315 1225 382 2060 17 214 17 947 0 1175 -87
1161 -370 2185 -852 3083 -268 499 -684 974 -1220 1391 -560 436 -1144 716
-1651 790 -121 18 -115 18 -189 0z m185 -39 c351 -77 941 -354 1409 -662 346
-227 543 -400 767 -673 753 -919 1224 -2114 1379 -3500 44 -389 63 -1074 41
-1450 -102 -1731 -676 -3215 -1626 -4199 -144 -149 -377 -363 -486 -447 -147
-113 -337 -199 -559 -253 -245 -59 -434 -77 -969 -92 -383 -10 -424 -13 -441
-34 -17 -20 12 -35 92 -50 68 -12 60 -12 -142 -10 -118 2 -237 8 -265 14 -212
43 -452 167 -686 355 -160 129 -515 445 -609 542 -882 914 -1445 2272 -1614
3894 -38 364 -41 424 -40 785 0 366 11 605 40 925 135 1504 564 2589 1415
3580 205 239 460 460 769 667 311 208 608 348 1110 522 146 51 274 96 285 101
21 9 23 9 130 -15z m-1855 -11242 c209 -107 470 -209 675 -263 312 -82 677
-117 905 -86 121 16 331 29 743 46 494 21 787 80 927 186 106 80 157 99 275
99 93 0 105 -2 167 -33 166 -81 287 -251 344 -482 14 -57 19 -244 8 -300 -8
-39 -85 -103 -194 -159 -170 -88 -348 -119 -880 -151 -102 -6 -241 -20 -310
-30 -335 -50 -1180 -77 -1595 -50 -192 13 -415 40 -665 81 -226 37 -927 175
-957 189 -32 13 -89 105 -109 175 -26 86 -23 227 5 334 67 254 223 448 400
498 79 22 134 10 261 -54z m2930 -63 c-8 -5 -22 -10 -30 -10 -13 0 -13 1 0 10
8 5 22 10 30 10 13 0 13 -1 0 -10z m-1327 -77 c-13 -2 -33 -2 -45 0 -13 2 -3
4 22 4 25 0 35 -2 23 -4z"/>
<path d="M2549 12059 c-44 -48 -49 -63 -16 -54 49 15 82 41 82 65 0 38 -24 35
-66 -11z"/>
<path d="M2655 12068 c-14 -11 -39 -47 -56 -80 l-31 -61 29 7 c48 12 87 40
104 74 30 59 1 97 -46 60z"/>
<path d="M2336 11745 c-31 -34 -43 -72 -27 -88 14 -14 35 5 55 54 21 51 6 70
-28 34z"/>
<path d="M2400 11704 c-8 -8 -16 -35 -20 -60 -5 -34 -4 -44 7 -44 46 0 80 51
63 95 -11 28 -31 32 -50 9z"/>
<path d="M2120 11422 c-29 -29 -56 -102 -67 -182 l-6 -44 43 34 c80 64 126
170 88 208 -18 18 -26 15 -58 -16z"/>
<path d="M2184 11314 c-28 -60 -33 -81 -26 -102 11 -33 39 -40 57 -15 18 23
49 158 41 178 -13 34 -38 13 -72 -61z"/>
<path d="M1921 10986 c-7 -8 -13 -40 -14 -72 -2 -48 1 -59 15 -62 24 -5 68 42
68 71 0 24 -34 77 -50 77 -4 0 -13 -6 -19 -14z"/>
<path d="M2006 10917 c-17 -26 -32 -82 -41 -157 l-7 -55 21 19 c67 61 102 192
55 210 -8 3 -20 -4 -28 -17z"/>
<path d="M1768 10603 c-9 -10 -21 -42 -27 -71 -13 -62 -15 -189 -3 -196 5 -3
20 1 35 9 26 13 27 13 27 -10 0 -51 82 -36 109 20 32 66 20 183 -21 209 -13 8
-22 6 -37 -8 -21 -19 -21 -19 -21 0 0 21 -26 64 -39 64 -4 0 -15 -8 -23 -17z"/>
<path d="M1616 10044 c-3 -9 -6 -46 -6 -83 0 -53 4 -72 18 -84 10 -10 24 -17
30 -17 27 0 28 114 1 173 -14 30 -34 35 -43 11z"/>
<path d="M1708 9913 c-26 -59 -28 -127 -4 -151 16 -16 18 -16 31 2 28 37 33
185 7 194 -7 2 -21 -16 -34 -45z"/>
<path d="M1484 9535 c-7 -19 -14 -56 -14 -83 0 -67 12 -172 19 -172 3 0 19 29
35 65 33 73 47 185 26 210 -22 26 -50 18 -66 -20z"/>
<path d="M1575 9493 c-4 -10 -10 -66 -14 -125 l-6 -108 27 0 c43 0 68 41 68
111 0 71 -25 139 -50 139 -10 0 -21 -8 -25 -17z"/>
<path d="M1435 9120 c-16 -31 -19 -58 -9 -84 16 -41 48 -1 60 74 6 36 4 40
-14 40 -14 0 -27 -11 -37 -30z"/>
<path d="M1509 8899 c-6 -12 -14 -58 -17 -102 -6 -90 2 -96 50 -36 33 41 44
92 29 132 -13 33 -45 36 -62 6z"/>
<path d="M1410 8831 c-13 -24 -2 -81 16 -81 15 0 29 61 20 85 -8 21 -23 19
-36 -4z"/>
<path d="M1282 8011 c-32 -20 -43 -365 -13 -435 l12 -30 15 30 c29 55 44 138
44 239 -1 144 -22 218 -58 196z"/>
<path d="M1386 7958 c-28 -44 -37 -140 -32 -355 6 -227 9 -253 36 -253 42 0
63 156 54 395 -4 99 -10 191 -14 204 -8 33 -26 37 -44 9z"/>
<path d="M1226 7168 c-34 -51 -38 -119 -28 -399 11 -274 17 -314 48 -288 7 6
26 65 41 132 l28 122 7 -80 c4 -44 10 -90 13 -102 8 -33 33 -18 44 26 33 127
48 495 23 539 -18 32 -43 24 -67 -21 l-20 -37 -15 63 c-12 50 -19 63 -37 65
-14 2 -27 -5 -37 -20z"/>
<path d="M1384 6345 c-15 -23 -15 -31 -3 -67 14 -43 36 -59 50 -37 19 30 3
129 -21 129 -5 0 -17 -11 -26 -25z"/>
<path d="M1376 6084 c-3 -9 -6 -76 -6 -150 0 -153 16 -218 46 -193 15 12 16
31 10 149 -3 74 -9 152 -12 173 -7 38 -27 50 -38 21z"/>
<path d="M1275 5910 c-3 -5 -9 -40 -14 -77 -6 -51 -5 -75 5 -94 16 -31 37 -42
53 -26 14 14 14 134 0 176 -11 30 -32 41 -44 21z"/>
<path d="M1340 5512 c-24 -238 -4 -439 63 -646 l32 -100 7 50 c14 111 9 240
-16 394 -14 85 -35 216 -46 290 -12 74 -22 136 -24 137 -2 2 -9 -54 -16 -125z"/>
<path d="M1602 4517 c-31 -37 -18 -142 16 -135 23 4 39 89 24 123 -13 28 -24
31 -40 12z"/>
<path d="M1650 3722 c0 -177 40 -322 125 -457 48 -75 115 -156 115 -140 0 35
-217 686 -235 704 -3 2 -5 -46 -5 -107z"/>
<path d="M2080 2540 c0 -53 37 -138 119 -273 43 -73 87 -150 98 -172 14 -32
357 -442 435 -520 43 -43 -54 126 -186 325 -136 205 -457 670 -463 670 -2 0
-3 -14 -3 -30z"/>
<path d="M3035 1459 c-4 -6 -3 -14 1 -18 26 -22 196 -48 235 -36 l23 8 -26 13
c-14 7 -56 18 -94 24 -38 5 -83 12 -101 15 -18 3 -34 1 -38 -6z"/>
</g>
</svg>
