<?xml version="1.0" standalone="no"?>
<!DOCTYPE svg PUBLIC "-//W3C//DTD SVG 20010904//EN"
 "http://www.w3.org/TR/2001/REC-SVG-20010904/DTD/svg10.dtd">
<svg version="1.0" xmlns="http://www.w3.org/2000/svg"
 width="1280.000000pt" height="772.000000pt" viewBox="0 0 1280.000000 772.000000"
 preserveAspectRatio="xMidYMid meet">
<metadata>
Created by potrace 1.15, written by Peter Selinger 2001-2017
</metadata>
<g transform="translate(0.000000,772.000000) scale(0.100000,-0.100000)"
fill="#000000" stroke="none">
<path d="M6280 7713 c-1649 -71 -3330 -663 -4682 -1649 -475 -346 -900 -753
-1175 -1124 -327 -442 -464 -835 -409 -1172 102 -623 735 -1421 1686 -2128
289 -215 642 -442 950 -612 236 -130 663 -339 741 -363 13 -4 114 -43 224 -87
1266 -505 2562 -678 3875 -518 553 68 1172 214 1680 398 102 37 168 55 193 54
97 -6 944 419 1324 664 729 470 1295 983 1667 1509 331 468 483 913 437 1283
-88 716 -773 1594 -1821 2336 -52 37 -116 84 -142 104 -57 45 -274 181 -458
287 -268 155 -890 455 -942 455 -8 0 -84 26 -169 59 -984 374 -2003 547 -2979
504z"/>
</g>
</svg>
