<?xml version="1.0" standalone="no"?>
<!DOCTYPE svg PUBLIC "-//W3C//DTD SVG 20010904//EN"
 "http://www.w3.org/TR/2001/REC-SVG-20010904/DTD/svg10.dtd">
<svg version="1.0" xmlns="http://www.w3.org/2000/svg"
 width="544.000000pt" height="676.000000pt" viewBox="0 0 544.000000 676.000000"
 preserveAspectRatio="xMidYMid meet">

<g transform="translate(0.000000,676.000000) scale(0.100000,-0.100000)"
fill="#000000" stroke="none">
<g fill="white">
<path d="M920 4465 l0 -1845 60 0 60 0 2 488 3 487 1710 0 1710 0 3 -487 2
-488 60 0 60 0 0 1845 0 1845 -60 0 -60 0 -2 -1267 -3 -1268 -1710 0 -1710 0
-3 1268 -2 1267 -60 0 -60 0 0 -1845z"/>
</g>
<path d="M4400 2610 c0 -3 0 -257 -1 -565 0 -308 0 -894 0 -1302 l1 -743 130
0 130 0 -2 1307 -3 1307 -127 1 c-71 0 -128 -2 -128 -5z"/>
<path d="M859 1943 c0 -368 -1 -955 -2 -1305 l-2 -638 127 0 128 0 2 1007 c2
555 2 1142 0 1306 l-3 297 -124 0 -125 0 -1 -667z"/>
</g>
</svg>
