<?xml version="1.0" standalone="no"?>
<!DOCTYPE svg PUBLIC "-//W3C//DTD SVG 20010904//EN"
 "http://www.w3.org/TR/2001/REC-SVG-20010904/DTD/svg10.dtd">
<svg version="1.0" xmlns="http://www.w3.org/2000/svg"
 width="837.000000pt" height="1280.000000pt" viewBox="0 0 837.000000 1280.000000"
 preserveAspectRatio="xMidYMid meet">
<metadata>
Created by potrace 1.15, written by Peter Selinger 2001-2017
</metadata>
<g transform="translate(0.000000,1280.000000) scale(0.100000,-0.100000)"
fill="red" stroke="none">
<path d="M345 12786 c-186 -39 -322 -178 -339 -348 -14 -126 33 -234 145 -338
l60 -56 -12 -49 c-16 -68 -16 -263 0 -355 150 -858 1329 -1942 3371 -3100 129
-73 238 -136 242 -139 4 -4 -26 -41 -66 -83 -358 -376 -600 -1144 -657 -2083
-14 -228 -6 -706 15 -915 79 -780 268 -1378 554 -1758 30 -40 53 -74 51 -76
-2 -2 -40 -14 -84 -26 -44 -12 -129 -40 -190 -62 -60 -22 -137 -49 -170 -60
-33 -11 -134 -52 -225 -91 -1046 -443 -1636 -1071 -1754 -1870 -28 -191 -15
-492 28 -655 13 -49 13 -52 -3 -47 -9 3 -78 9 -153 14 -345 23 -680 -38 -867
-159 -280 -181 -83 -420 419 -507 135 -24 479 -24 615 -1 191 33 360 95 454
167 79 59 112 161 77 229 -48 92 -212 184 -404 229 -70 17 -73 18 -82 53 -36
134 -44 210 -45 425 0 194 3 234 24 335 120 585 488 1057 1128 1448 216 133
572 301 823 390 47 17 119 42 160 57 41 15 125 42 187 60 l112 32 28 -29 c42
-45 165 -123 230 -148 71 -27 199 -37 273 -21 81 17 190 75 271 143 l72 61 66
-12 c118 -21 433 -96 621 -147 1056 -290 1677 -678 1836 -1149 23 -69 27 -96
27 -200 0 -77 -5 -134 -14 -158 -13 -37 -18 -40 -99 -66 -157 -51 -277 -127
-315 -202 -20 -37 -19 -113 1 -155 53 -110 263 -210 528 -251 134 -20 384 -23
509 -5 366 53 605 204 573 364 -28 141 -257 260 -584 303 -178 23 -314 20
-568 -15 0 0 6 37 14 82 32 183 -26 392 -162 578 -308 425 -1072 787 -2161
1026 -115 26 -216 48 -224 50 -11 4 -8 11 12 32 14 15 54 70 89 123 409 614
605 1819 477 2929 -96 831 -340 1474 -678 1787 -41 37 -52 53 -41 57 8 3 98
37 200 74 1454 544 2396 1483 2694 2687 32 130 55 271 70 419 l11 119 30 10
c55 18 144 86 195 149 98 123 125 279 73 427 -69 199 -238 326 -460 346 -212
19 -422 -116 -488 -315 -84 -252 53 -515 319 -612 72 -26 90 -29 179 -26 l100
3 -7 -89 c-26 -345 -151 -769 -329 -1116 -448 -875 -1291 -1550 -2477 -1984
l-174 -63 -70 33 c-163 77 -333 67 -489 -29 l-47 -29 -123 67 c-502 277 -1191
705 -1596 993 -818 579 -1388 1124 -1677 1603 -186 308 -268 603 -234 842 7
48 16 87 22 87 5 0 30 -9 56 -20 26 -11 81 -24 122 -28 322 -33 574 220 489
493 -41 134 -144 239 -287 293 -93 36 -208 47 -297 28z"/>
<path d="M3924 11675 c-606 -81 -1121 -418 -1344 -880 -92 -190 -125 -327
-125 -530 0 -204 38 -361 130 -547 182 -367 560 -663 1016 -797 423 -124 846
-116 1277 25 116 37 365 165 471 241 172 124 343 311 437 479 141 252 190 558
134 832 -48 239 -160 447 -345 640 -259 272 -590 442 -1015 523 -138 27 -488
34 -636 14z"/>
</g>
</svg>
